<svg width="128" height="34" viewBox="0 0 128 34" fill="none" xmlns="http://www.w3.org/2000/svg">
<rect width="128" height="34" fill="#FAFAFA"/>
<path d="M95.862 25.9253C95.468 25.9281 95.1347 25.9308 94.8014 25.9295C94.0304 25.9265 94.0144 25.9132 94.0153 25.2841C94.0165 24.4002 94.0213 23.5162 94.0193 22.6324C94.0188 22.4199 94.0128 22.2062 93.9828 21.9954C93.8972 21.3936 93.469 21.0714 92.782 21.0767C92.104 21.0818 91.6065 21.4153 91.5537 21.9896C91.4938 22.6413 91.5141 23.2977 91.5058 23.9521C91.4992 24.4758 91.4993 24.9996 91.5016 25.5234C91.5028 25.8051 91.3527 25.9352 90.9737 25.9298C88.8247 25.8994 89.2585 26.1602 89.2178 24.6312C89.1965 23.8295 89.2312 23.0268 89.2054 22.2252C89.1833 21.5358 88.7806 21.1342 88.1297 21.0829C87.3228 21.0193 86.7083 21.4276 86.6719 22.1383C86.6216 23.1188 86.6449 24.1017 86.639 25.0836C86.6339 25.926 86.6353 25.9295 85.5975 25.9267C84.1923 25.9228 84.3559 26.0262 84.3501 24.9614C84.3417 23.4064 84.3665 21.8512 84.3372 20.2965C84.3287 19.8463 84.518 19.66 85.0862 19.6983C85.3343 19.715 85.5861 19.7055 85.8358 19.6985C86.2499 19.6869 86.6129 19.7211 86.5449 20.2327C88.1388 19.3763 89.6155 19.255 90.9871 20.3991C91.2394 20.3926 91.3598 20.2165 91.5383 20.1149C92.4788 19.5792 93.4814 19.3866 94.5911 19.763C95.7161 20.1446 96.229 20.8787 96.2775 21.7804C96.3444 23.0222 96.2965 24.2678 96.2968 25.5118C96.2969 25.7178 96.2822 25.918 95.862 25.9253Z" fill="#4B2E2B" fill-opacity="0.79"/>
<path d="M73.2535 6.48633C73.264 7.47257 73.264 8.41444 73.264 9.32419C73.513 9.4052 73.5947 9.30734 73.6904 9.25608C75.8501 8.09842 78.4542 8.80938 79.2269 10.7695C79.8004 12.2246 79.2826 13.8969 77.997 14.7414C76.5917 15.6645 74.9911 15.6321 73.401 14.6403C73.1412 14.7696 73.431 15.1346 73.0561 15.1908C72.7739 15.2332 72.4774 15.2192 72.1871 15.224C71.9376 15.2281 71.6869 15.2124 71.4384 15.2251C71.0351 15.2457 70.8769 15.1008 70.8774 14.7924C70.8818 12.0952 70.8814 9.39797 70.8774 6.70078C70.8769 6.37043 71.0646 6.22476 71.4847 6.23527C71.9004 6.24566 72.3168 6.23433 72.7329 6.23642C72.9443 6.23747 73.1574 6.24426 73.2535 6.48633ZM73.2936 11.5362C73.259 11.6636 73.2125 11.7899 73.1916 11.9187C73.0064 13.0615 74.0372 13.9951 75.3405 13.8687C76.2889 13.7767 76.9635 13.1813 77.044 12.1834C77.1154 11.2987 76.7002 10.4576 75.4451 10.2387C74.5038 10.0746 73.7046 10.5354 73.2936 11.5362Z" fill="#4B2E2B" fill-opacity="0.79"/>
<path d="M57.2923 13.5651C57.8874 13.3565 58.3329 13.0722 58.568 12.6235C58.6873 12.3957 58.8828 12.3012 59.1948 12.3083C59.6734 12.3191 60.1529 12.3186 60.6314 12.3075C61.1109 12.2963 61.1987 12.4561 61.0603 12.7942C60.6044 13.907 59.7149 14.7084 58.322 15.1237C56.0021 15.8154 53.1643 15.4348 51.6353 13.5849C50.3348 12.0116 50.4584 9.35278 51.956 7.89197C54.1515 5.75056 58.7679 5.95091 60.5355 8.27061C60.7259 8.52048 60.8529 8.80189 60.9901 9.07462C61.173 9.43797 60.9857 9.59626 60.5068 9.58231C60.2573 9.57503 60.0052 9.56463 59.7576 9.58323C59.1091 9.63193 58.6963 9.50999 58.3217 8.99237C57.399 7.7172 54.6043 7.87862 53.6784 9.239C52.9823 10.2616 52.9484 11.3504 53.5602 12.4076C54.2066 13.5247 55.6038 13.9441 57.2923 13.5651Z" fill="#4B2E2B" fill-opacity="0.79"/>
<path d="M55.2588 24.0407C53.1604 24.0782 53.6796 23.7761 53.0547 25.2544C52.8325 25.78 52.5353 26.0189 51.8258 25.9343C51.3614 25.8789 50.8763 25.9885 50.4224 25.8662C50.3252 25.6563 50.4642 25.4976 50.5431 25.3343C51.7528 22.8301 52.9719 20.3287 54.1718 17.8215C54.3128 17.5269 54.5242 17.4273 54.9105 17.4198C56.7692 17.3835 56.7723 17.3759 57.4425 18.7567C58.5015 20.9386 59.5578 23.1215 60.6079 25.3061C60.692 25.481 60.8634 25.6515 60.7188 25.9185C60.0458 25.9185 59.345 25.92 58.6442 25.9177C58.4108 25.9169 58.334 25.772 58.267 25.6344C58.163 25.4209 58.073 25.2033 57.9772 24.9874C57.4827 23.8734 57.7758 24.0602 56.2569 24.0405C55.945 24.0365 55.6328 24.0405 55.2588 24.0407ZM56.4769 21.5257C56.2066 20.9219 55.9363 20.318 55.666 19.7142C55.1224 20.5933 54.6856 21.4488 54.3604 22.3826C55.2014 22.3826 55.973 22.3826 56.8253 22.3826C56.7055 22.0867 56.6066 21.8426 56.4769 21.5257Z" fill="#4B2E2B" fill-opacity="0.79"/>
<path d="M103.652 19.8584C105.211 20.5824 105.94 21.9172 105.634 23.4224C105.347 24.8352 104.312 25.7687 102.722 26.0508C101.815 26.2118 100.993 26.0502 100.237 25.6429C100.087 25.5621 99.943 25.4741 99.7176 25.3439C99.7519 25.9506 99.2829 25.9402 98.7774 25.9317C97.2387 25.9059 97.3857 26.1006 97.3822 24.8288C97.3759 22.541 97.3804 20.2531 97.384 17.9653C97.385 17.3211 97.3982 17.3065 98.2233 17.3139C99.8684 17.3286 99.6521 17.1244 99.6719 18.4642C99.6805 19.051 99.6733 19.6379 99.6733 20.3234C100.92 19.5256 102.21 19.3412 103.652 19.8584ZM101.452 21.0714C100.481 21.1577 99.889 21.573 99.6936 22.306C99.4433 23.2449 99.7899 24.1022 100.577 24.4506C100.735 24.5207 100.924 24.5645 101.105 24.5849C102.288 24.7188 103.159 24.1698 103.32 23.1635C103.498 22.0573 102.767 21.0562 101.452 21.0714Z" fill="#4B2E2B" fill-opacity="0.79"/>
<path d="M64.1493 10.957C63.6419 10.9781 63.1833 10.9714 62.7272 10.9943C62.1356 11.024 62.1111 10.7823 62.2708 10.4435C62.6085 9.72708 63.2398 9.23203 64.1421 8.95763C65.2488 8.62108 66.3748 8.60002 67.5035 8.88347C68.6925 9.18208 69.4027 9.91381 69.4184 10.8973C69.4391 12.189 69.4134 13.4813 69.4299 14.7731C69.4343 15.1128 69.2803 15.2514 68.8484 15.2284C68.5169 15.2107 68.1807 15.2066 67.8501 15.2288C67.4741 15.254 67.2017 15.172 67.073 14.8272C66.5005 15.0386 65.993 15.2888 65.3944 15.3749C63.7249 15.6151 62.2801 14.971 61.9402 13.8103C61.7059 13.0105 62.1324 12.2492 63.0467 11.8565C64.0469 11.4268 65.158 11.4057 66.254 11.3236C66.5529 11.3012 66.9921 11.4556 67.0829 11.0746C67.1768 10.6804 66.9545 10.3716 66.4826 10.1954C65.7721 9.9302 64.8827 10.1386 64.4498 10.665C64.3716 10.7601 64.2831 10.85 64.1493 10.957ZM64.7205 12.7297C64.0227 13.1379 64.0141 13.6815 64.701 13.9726C65.7148 14.4024 67.1128 13.7506 67.1197 12.8536C67.1218 12.5849 67.0061 12.4525 66.6501 12.4721C66.0274 12.5065 65.4072 12.5503 64.7205 12.7297Z" fill="#4B2E2B" fill-opacity="0.79"/>
<path d="M100.682 13.2393C101.134 13.3083 101.017 13.5061 100.92 13.6937C100.409 14.6833 99.4207 15.181 98.1283 15.3728C96.1464 15.6668 94.2553 14.927 93.5322 13.5679C92.7011 12.0055 93.2677 10.1252 94.8798 9.28275C96.3162 8.53221 97.8701 8.44292 99.3746 9.1054C100.822 9.74287 101.223 10.8443 101.187 12.0843C101.177 12.4421 100.928 12.471 100.581 12.47C99.1232 12.4659 97.6649 12.4669 96.2066 12.4703C95.5168 12.4719 95.4431 12.5623 95.6861 13.0767C96.0851 13.9212 97.4706 14.342 98.2821 13.7432C99.0141 13.2031 99.778 13.2024 100.682 13.2393ZM95.8085 10.8427C95.765 10.9733 95.5851 11.0949 95.7748 11.2529C96.7535 11.2529 97.7406 11.2529 98.729 11.2529C98.6913 10.6799 98.2862 10.2775 97.6356 10.1448C96.9686 10.0088 96.3061 10.2445 95.8085 10.8427Z" fill="#4B2E2B" fill-opacity="0.79"/>
<path d="M84.4556 12.14C84.4559 11.1744 84.4713 10.2577 84.449 9.34153C84.4401 8.97799 84.61 8.83328 85.067 8.8633C85.3359 8.88097 85.6089 8.87527 85.8789 8.86369C86.3476 8.84359 86.7843 8.84536 86.7056 9.42457C86.9567 9.2977 87.126 9.21139 87.2963 9.12617C89.5005 8.02286 91.985 8.97184 92.1306 11.0166C92.2201 12.2729 92.1469 13.5362 92.1546 14.7963C92.1565 15.1068 91.9905 15.233 91.5886 15.2264C89.3671 15.1899 89.7672 15.4722 89.7319 13.8449C89.7139 13.0104 89.737 12.1755 89.7224 11.3409C89.7107 10.6703 89.3398 10.3288 88.5874 10.2552C87.7251 10.1707 87.0952 10.494 86.8743 11.1172C86.7826 11.3759 86.797 11.636 86.7962 11.8968C86.7932 12.8623 86.7874 13.828 86.8014 14.7935C86.8059 15.1064 86.6576 15.2347 86.2526 15.2275C84.0663 15.1887 84.5094 15.4699 84.4578 13.9075C84.4389 13.3351 84.4553 12.762 84.4556 12.14Z" fill="#4B2E2B" fill-opacity="0.79"/>
<path d="M83.2763 24.2449C82.5859 25.5898 81.153 26.244 79.2765 26.1035C77.4195 25.9645 76.0452 25.002 75.729 23.6191C75.3567 21.9907 76.1283 20.5752 77.742 19.9264C80.4241 18.8479 83.2888 20.149 83.4288 22.509C83.4739 23.2702 83.4739 23.2707 82.4756 23.2711C81.1633 23.2716 79.851 23.2675 78.5387 23.2732C77.9177 23.2758 77.8337 23.3816 78.0577 23.8297C78.4737 24.6619 79.8513 25.0669 80.6142 24.4578C81.3318 23.8849 82.1043 24.0188 82.9044 23.995C83.0878 23.9895 83.3048 23.9769 83.2763 24.2449ZM80.9681 21.5667C80.4626 21.004 79.9345 20.8236 79.2405 20.9766C78.5371 21.1317 78.1796 21.4671 78.1022 22.1247C78.9248 22.1247 79.7412 22.1147 80.557 22.1285C81.0475 22.1368 81.2172 22.0005 80.9681 21.5667Z" fill="#4B2E2B" fill-opacity="0.79"/>
<path d="M112.473 25.3111C111.541 23.4718 110.623 21.6684 109.663 19.782C110.451 19.6497 111.162 19.6613 111.868 19.7541C112.091 19.7834 112.126 19.9941 112.198 20.1453C112.745 21.2905 113.291 22.4361 113.89 23.6936C114.068 23.3503 114.207 23.107 114.321 22.8565C114.705 22.0099 115.118 21.1695 115.445 20.3092C115.629 19.8269 115.949 19.6378 116.567 19.6958C117.015 19.7378 117.479 19.6316 117.909 19.7715C118.027 19.9413 117.903 20.0703 117.837 20.201C116.751 22.377 115.671 24.5546 114.571 26.7263C113.912 28.0266 113.006 28.4577 111.239 28.3813C110.881 28.3658 110.69 28.2818 110.709 27.9807C110.723 27.7686 110.722 27.5552 110.709 27.343C110.691 27.0435 110.881 26.9568 111.239 26.9397C112.393 26.8847 112.914 26.2064 112.473 25.3111Z" fill="#4B2E2B" fill-opacity="0.79"/>
<path d="M64.1297 24.7403C64.5722 24.7931 64.9672 24.8236 65.332 24.6541C65.5774 24.5402 65.7567 24.3887 65.7413 24.1443C65.7269 23.9156 65.5393 23.7776 65.2928 23.718C64.7578 23.5886 64.2106 23.4905 63.6713 23.3715C63.332 23.2967 62.9847 23.2308 62.6642 23.1195C61.9066 22.8563 61.4265 22.4099 61.3454 21.7425C61.2568 21.0137 61.5483 20.3969 62.3729 20.0262C63.7121 19.4242 65.1014 19.3688 66.4731 19.9686C67.1179 20.2506 67.515 20.7015 67.7157 21.2666C67.8081 21.527 67.7135 21.6472 67.3861 21.6541C66.9492 21.6634 66.5119 21.6589 66.0749 21.6608C65.8167 21.662 65.6786 21.5531 65.543 21.3824C65.184 20.9302 64.5969 20.7751 63.9777 20.9416C63.7126 21.013 63.4739 21.1286 63.4464 21.3737C63.4208 21.6007 63.6249 21.7296 63.8489 21.8288C64.3667 22.0582 64.9628 22.0834 65.5188 22.214C65.8367 22.2886 66.1649 22.3428 66.4715 22.4394C67.2288 22.6779 67.7919 23.0685 67.9136 23.7399C68.0541 24.5146 67.7741 25.158 66.9205 25.6174C65.5851 26.3363 63.2204 26.2667 61.9805 25.4551C61.4327 25.0965 61.0977 24.648 61.0854 24.0437C61.7192 23.9338 62.321 24.0005 62.9165 23.9844C63.1209 23.9788 63.1971 24.1055 63.2759 24.2204C63.4541 24.4797 63.7304 24.6405 64.1297 24.7403Z" fill="#4B2E2B" fill-opacity="0.79"/>
<path d="M74.9845 21.2348C75.0204 21.369 75.0659 21.4739 74.9699 21.554C74.6897 21.7875 73.1547 21.6691 72.9065 21.3993C72.4871 20.9437 71.9461 20.7802 71.3406 20.9385C71.0753 21.0078 70.841 21.1212 70.8103 21.3691C70.7795 21.6183 70.9728 21.7702 71.2331 21.8616C71.7871 22.056 72.3851 22.1317 72.9726 22.2356C74.5558 22.5153 75.2294 23.1498 75.1788 24.289C75.1516 24.9026 74.7545 25.3351 74.1248 25.6515C72.7545 26.34 70.5815 26.2578 69.2977 25.4708C68.7113 25.1112 68.42 24.6305 68.3379 23.9906C69.0031 23.9906 69.6011 23.9938 70.199 23.9892C70.4642 23.9872 70.5261 24.1519 70.6418 24.2847C71.0641 24.7695 71.9184 24.9366 72.5821 24.6691C72.8307 24.5689 73.054 24.4394 73.0709 24.1995C73.0888 23.946 72.8441 23.8265 72.6004 23.7288C72.0933 23.5255 71.5237 23.491 70.9823 23.3811C70.5375 23.2907 70.0988 23.1975 69.7063 23.0019C68.5567 22.4291 68.3187 21.1569 69.2188 20.3536C70.5268 19.1862 74.2199 19.2014 74.9845 21.2348Z" fill="#4B2E2B" fill-opacity="0.79"/>
<path d="M102.969 12.4343C102.969 11.8455 102.953 11.3053 102.974 10.766C102.987 10.4251 102.808 10.2654 102.385 10.3135C101.683 10.3933 101.51 10.1136 101.586 9.63524C101.604 9.52243 101.602 9.40571 101.589 9.29211C101.554 8.97451 101.735 8.82513 102.134 8.86921C102.791 8.94178 102.995 8.73702 102.982 8.21579C102.955 7.0645 102.797 7.20886 104.272 7.19966C105.294 7.1933 105.29 7.19844 105.298 7.99628C105.307 8.95902 105.146 8.85022 106.394 8.87134C106.685 8.87627 107.114 8.74089 107.237 9.01907C107.398 9.38454 107.367 9.79759 107.241 10.1795C107.186 10.347 106.928 10.3027 106.747 10.3095C105.297 10.3637 105.297 10.363 105.297 11.5085C105.297 11.9829 105.294 12.4573 105.299 12.9317C105.305 13.592 105.6 13.8037 106.452 13.7673C107.306 13.7308 107.306 13.7308 107.306 14.4221C107.306 14.5693 107.3 14.7166 107.302 14.8637C107.304 15.0789 107.18 15.1912 106.899 15.2167C106.216 15.2786 105.543 15.3331 104.851 15.2305C103.637 15.0505 103.025 14.5354 102.975 13.5629C102.957 13.2036 102.97 12.8432 102.969 12.4343Z" fill="#4B2E2B" fill-opacity="0.79"/>
<path d="M108.92 18.8191C108.92 21.0443 108.906 23.2207 108.932 25.3967C108.938 25.8364 108.761 25.9492 108.218 25.94C106.61 25.913 106.608 25.931 106.608 24.655C106.607 22.4297 106.606 20.2044 106.609 17.9791C106.609 17.3149 106.614 17.3055 107.422 17.3138C109.134 17.3315 108.895 17.114 108.92 18.4755C108.922 18.5737 108.92 18.6719 108.92 18.8191Z" fill="#4B2E2B" fill-opacity="0.79"/>
<path d="M82.0641 15.226C80.347 15.1971 80.5192 15.4337 80.5116 14.0536C80.5034 12.5652 80.5051 11.0769 80.5077 9.58857C80.5089 8.86728 80.5143 8.86721 81.4547 8.86536C81.6629 8.86495 81.874 8.88301 82.0786 8.86181C82.6973 8.79769 82.9226 8.9813 82.9132 9.48634C82.8813 11.2033 82.8831 12.921 82.9144 14.638C82.9232 15.1216 82.7073 15.2991 82.0641 15.226Z" fill="#4B2E2B" fill-opacity="0.79"/>
<path d="M83.1497 7.11162C82.7798 8.03804 81.8253 8.3679 80.9495 7.90309C80.4508 7.63844 80.2456 7.25306 80.3727 6.79828C80.4952 6.35962 80.8878 6.09091 81.4516 6.02296C82.0373 5.95237 82.5775 6.02904 82.917 6.47249C83.0573 6.65567 83.1562 6.85258 83.1497 7.11162Z" fill="#4B2E2B" fill-opacity="0.79"/>
<path d="M12.0013 10.083C12.007 9.91347 11.9898 9.7735 12.0234 9.6368C12.0995 9.32652 12.4828 9.14056 13.0931 9.10628C13.2579 9.09702 13.4259 9.10101 13.5924 9.10101C22.2555 9.10077 30.9185 9.10052 39.5816 9.10186C39.8298 9.1019 40.0873 9.1005 40.3242 9.13195C40.8391 9.20032 41.1447 9.37384 41.1722 9.65581C41.1805 9.7409 41.1766 9.82633 41.1766 9.91161C41.177 14.2503 41.1773 18.5891 41.1775 22.9278C41.1775 23.5456 40.8382 23.7167 39.6117 23.7189C38.0455 23.7217 38.0455 23.7217 38.0475 24.5316C38.0476 24.5956 38.0402 24.6598 38.0491 24.7235C38.1363 25.3491 37.6138 25.3754 36.491 25.3093C36.1063 25.2867 35.968 25.1232 35.9715 24.9294C35.9773 24.6096 35.9623 24.2897 35.9733 23.97C35.9794 23.7936 35.8345 23.7124 35.4911 23.7208C35.3873 23.7234 35.2829 23.7196 35.1788 23.7196C29.4728 23.7197 23.7669 23.7194 18.0609 23.7204C17.2071 23.7205 17.2223 23.7229 17.2445 24.1591C17.2586 24.4355 17.2223 24.7127 17.2029 24.9894C17.1887 25.1923 16.9644 25.2955 16.5829 25.3246C15.4238 25.4132 15.1159 25.274 15.0962 24.6763C15.0864 24.38 15.3342 24.0149 14.9895 23.8053C14.6239 23.5829 13.89 23.7412 13.3193 23.7201C12.4275 23.6871 12.0141 23.4818 12.0072 23.0022C11.9934 22.0321 12.0037 21.062 12.0035 20.0919C12.0029 16.766 12.0021 13.44 12.0013 10.083ZM14.042 16.2523C14.0421 18.2679 14.0527 20.2835 14.031 22.299C14.0278 22.5958 14.2128 22.68 14.7817 22.6782C18.3441 22.6669 21.9067 22.666 25.469 22.6788C26.0696 22.6809 26.2493 22.5905 26.2479 22.2818C26.2301 18.368 26.23 14.4541 26.2485 10.5402C26.2499 10.2292 26.0609 10.1411 25.4659 10.143C21.9244 10.1542 18.3826 10.154 14.8412 10.1406C14.2163 10.1383 14.0219 10.2308 14.027 10.5574C14.0562 12.4343 14.0417 14.3113 14.042 16.2523ZM27.4213 20.2195C27.422 20.9228 27.4418 21.6263 27.4136 22.3293C27.403 22.5954 27.5826 22.6791 28.0952 22.6777C31.5714 22.6684 35.0479 22.6662 38.5241 22.6756C39.0867 22.6771 39.2265 22.5699 39.2256 22.2996C39.2115 18.3995 39.2153 14.4993 39.2123 10.5992C39.2119 10.1739 39.1599 10.1494 38.3212 10.1491C34.9697 10.1482 31.6182 10.1483 28.2668 10.149C27.4209 10.1491 27.4206 10.1508 27.4206 10.597C27.4208 13.7832 27.4212 16.9694 27.4213 20.2195Z" fill="#4B2E2B" fill-opacity="0.79"/>
<path d="M22.6466 16.0375C23.3717 15.7403 24.0768 15.7523 24.5292 16.0492C24.9509 16.3258 24.8627 16.6678 24.312 16.8916C23.8892 17.0634 23.2252 17.0602 22.8173 16.8844C22.3423 16.6798 22.2749 16.4022 22.6466 16.0375Z" fill="#4B2E2B" fill-opacity="0.79"/>
<path d="M28.8597 16.3645C28.9758 16.0621 29.2912 15.8821 29.8369 15.8277C30.2765 15.7839 30.669 15.8518 30.9495 16.0299C31.2882 16.245 31.3828 16.4835 31.0754 16.7345C30.757 16.9944 30.277 17.0722 29.7315 17.0006C29.1424 16.9232 28.8447 16.7081 28.8597 16.3645Z" fill="#4B2E2B" fill-opacity="0.79"/>
</svg>
